<?xml version="1.0" encoding="utf-8"?>
<!-- Generator: Adobe Illustrator 16.0.0, SVG Export Plug-In . SVG Version: 6.00 Build 0)  -->
<!DOCTYPE svg PUBLIC "-//W3C//DTD SVG 1.1//EN" "http://www.w3.org/Graphics/SVG/1.1/DTD/svg11.dtd">
<svg version="1.1" id="Layer_1" xmlns="http://www.w3.org/2000/svg" xmlns:xlink="http://www.w3.org/1999/xlink" x="0px" y="0px"
	 width="218px" height="60px" viewBox="0 0 109 30" style="enable-background:new 0 0 109 30;" xml:space="preserve">
<style type="text/css">
<![CDATA[
	.st0{fill:#F3F3F3;}
	.st1{fill:#00B6FF;}
]]>
</style>
<path class="st1" d="M109,27c0,1.7-1.3,3-3,3H3c-1.7,0-3-1.3-3-3V3c0-1.7,1.3-3,3-3h103c1.7,0,3,1.3,3,3V27z"/>
<g>
	<path class="st0" d="M24,20.2c-0.5,0.1-1,0.2-1.6,0.2c-0.8,0-1.5-0.1-2.2-0.4c-0.7-0.3-1.2-0.7-1.7-1.2c-0.5-0.5-0.8-1.1-1.1-1.7
		C17.2,16.4,17,15.7,17,15c0-0.8,0.1-1.6,0.4-2.2s0.6-1.3,1.1-1.7c0.5-0.5,1.1-0.9,1.7-1.1c0.7-0.3,1.4-0.4,2.2-0.4
		c1,0,2,0.2,2.8,0.6v2c-0.4-0.3-0.8-0.5-1.3-0.6c-0.5-0.2-1-0.2-1.5-0.2c-0.5,0-0.9,0.1-1.4,0.3c-0.4,0.2-0.8,0.4-1.1,0.8
		c-0.3,0.3-0.6,0.7-0.7,1.2c-0.2,0.5-0.3,1-0.3,1.6c0,0.5,0.1,1,0.2,1.5c0.2,0.5,0.4,0.9,0.7,1.2c0.3,0.3,0.7,0.6,1.1,0.8
		c0.4,0.2,0.9,0.3,1.5,0.3c0.6,0,1.1-0.1,1.5-0.2c0.5-0.1,0.9-0.3,1.2-0.6v1.9C25,19.9,24.5,20.1,24,20.2z"/>
	<path class="st0" d="M30.1,20.4c-0.5,0-1-0.1-1.4-0.3c-0.4-0.2-0.8-0.4-1.1-0.7s-0.6-0.7-0.7-1.1c-0.2-0.4-0.3-0.9-0.3-1.4
		c0-0.5,0.1-0.9,0.3-1.4c0.2-0.4,0.4-0.8,0.8-1.1c0.3-0.3,0.7-0.6,1.1-0.8c0.4-0.2,0.9-0.3,1.4-0.3c0.5,0,1,0.1,1.4,0.3
		c0.4,0.2,0.8,0.4,1.1,0.7c0.3,0.3,0.6,0.7,0.8,1.1c0.2,0.4,0.3,0.9,0.3,1.4c0,0.5-0.1,0.9-0.3,1.3c-0.2,0.4-0.4,0.8-0.7,1.1
		c-0.3,0.3-0.7,0.6-1.2,0.8C31.1,20.3,30.6,20.4,30.1,20.4z M30.2,18.9c0.3,0,0.5-0.1,0.8-0.2s0.4-0.2,0.6-0.4
		c0.2-0.2,0.3-0.4,0.4-0.6c0.1-0.2,0.1-0.5,0.1-0.7c0-0.3,0-0.5-0.1-0.8c-0.1-0.2-0.2-0.4-0.4-0.6s-0.4-0.3-0.6-0.4S30.4,15,30.1,15
		c-0.3,0-0.5,0.1-0.8,0.2c-0.2,0.1-0.4,0.2-0.6,0.4c-0.2,0.2-0.3,0.4-0.4,0.6c-0.1,0.2-0.1,0.5-0.1,0.8c0,0.3,0.1,0.5,0.2,0.8
		c0.1,0.2,0.2,0.4,0.4,0.6c0.2,0.2,0.4,0.3,0.6,0.4C29.7,18.8,29.9,18.9,30.2,18.9z"/>
	<path class="st0" d="M35.4,13.6h1.7v0.9c0.2-0.2,0.4-0.5,0.8-0.7c0.3-0.2,0.8-0.3,1.3-0.3c0.4,0,0.8,0.1,1,0.2
		c0.3,0.1,0.5,0.3,0.7,0.4c0.2,0.2,0.4,0.5,0.5,0.8s0.1,0.7,0.1,1.1v4.1h-1.7v-3.8c0-0.4-0.1-0.8-0.3-1.1C39.3,15.1,39,15,38.6,15
		c-0.2,0-0.3,0-0.5,0.1c-0.2,0.1-0.3,0.2-0.5,0.3c-0.1,0.1-0.3,0.3-0.4,0.5c-0.1,0.2-0.1,0.5-0.1,0.7v3.6h-1.7V13.6z"/>
	<path class="st0" d="M43.6,15h-0.9v-1.3h0.9v-2c0-0.4,0-0.8,0.1-1.1c0.1-0.3,0.2-0.6,0.4-0.9c0.2-0.2,0.4-0.4,0.7-0.6
		c0.3-0.1,0.7-0.2,1.1-0.2c0.2,0,0.4,0,0.6,0c0.2,0,0.4,0,0.5,0.1v1.4c-0.1,0-0.2,0-0.4,0c-0.1,0-0.2,0-0.4,0
		c-0.3,0-0.5,0.1-0.6,0.2c-0.1,0.1-0.2,0.2-0.2,0.4c0,0.2-0.1,0.5-0.1,0.9v1.8h1.6V15h-1.6v5.2h-1.7V15z"/>
	<path class="st0" d="M49.1,12.1c-0.3,0-0.6-0.1-0.8-0.3C48.1,11.6,48,11.3,48,11c0-0.3,0.1-0.6,0.3-0.8c0.2-0.2,0.5-0.3,0.8-0.3
		c0.3,0,0.6,0.1,0.8,0.3c0.2,0.2,0.3,0.5,0.3,0.8c0,0.3-0.1,0.6-0.3,0.8C49.7,12,49.4,12.1,49.1,12.1z M48.3,13.6H50v6.6h-1.7V13.6z
		"/>
	<path class="st0" d="M53.5,20.9c0,0.3,0.2,0.6,0.5,0.9c0.3,0.2,0.7,0.4,1.1,0.4c0.6,0,1-0.1,1.3-0.4c0.3-0.3,0.4-0.8,0.4-1.5v-1
		c-0.3,0.3-0.6,0.6-0.9,0.7c-0.4,0.2-0.8,0.2-1.2,0.2c-0.5,0-0.9-0.1-1.3-0.3c-0.4-0.2-0.7-0.4-1-0.7c-0.3-0.3-0.5-0.6-0.6-1
		c-0.1-0.4-0.2-0.8-0.2-1.3c0-0.5,0.1-0.9,0.2-1.4c0.2-0.4,0.4-0.8,0.7-1.1c0.3-0.3,0.6-0.6,1-0.7c0.4-0.2,0.8-0.3,1.2-0.3
		c0.4,0,0.9,0.1,1.2,0.2c0.4,0.2,0.7,0.4,0.9,0.7v-0.8h1.7v6.1c0,0.7-0.1,1.2-0.2,1.7s-0.3,0.8-0.7,1.1c-0.3,0.3-0.7,0.5-1.1,0.7
		s-0.9,0.2-1.5,0.2c-1,0-1.8-0.2-2.3-0.7c-0.5-0.5-0.8-1.1-0.8-1.8H53.5z M55.1,18.8c0.3,0,0.5,0,0.7-0.1s0.4-0.2,0.6-0.4
		c0.2-0.2,0.3-0.4,0.4-0.6c0.1-0.2,0.1-0.5,0.1-0.8c0-0.2,0-0.5-0.1-0.7c-0.1-0.2-0.2-0.4-0.4-0.6c-0.2-0.2-0.4-0.3-0.6-0.4
		s-0.5-0.2-0.8-0.2c-0.3,0-0.5,0.1-0.7,0.1c-0.2,0.1-0.4,0.2-0.6,0.4c-0.2,0.2-0.3,0.4-0.4,0.6c-0.1,0.2-0.1,0.5-0.1,0.8
		c0,0.6,0.2,1,0.5,1.4C54.1,18.6,54.6,18.8,55.1,18.8z"/>
	<path class="st0" d="M60.5,13.6h1.7v3.4c0,0.3,0,0.5,0.1,0.7c0,0.2,0.1,0.4,0.2,0.6c0.1,0.2,0.2,0.3,0.4,0.4s0.4,0.1,0.7,0.1
		c0.3,0,0.5-0.1,0.7-0.2c0.2-0.1,0.3-0.2,0.4-0.4c0.1-0.2,0.2-0.4,0.2-0.6c0-0.2,0-0.4,0-0.7v-3.5h1.7v3.4c0,0.5-0.1,1-0.2,1.4
		c-0.1,0.4-0.3,0.8-0.6,1.1c-0.3,0.3-0.6,0.5-1,0.6c-0.4,0.1-0.8,0.2-1.3,0.2c-1,0-1.8-0.3-2.4-0.9c-0.3-0.3-0.4-0.6-0.6-1
		c-0.1-0.4-0.2-0.9-0.2-1.4V13.6z M64.6,9.6l1.4,1l-2.4,1.9l-1-0.7L64.6,9.6z"/>
	<path class="st0" d="M68.6,13.6h1.7v1c0.2-0.3,0.4-0.6,0.7-0.9c0.3-0.2,0.7-0.3,1.2-0.3c0.1,0,0.2,0,0.3,0s0.2,0,0.2,0l-0.1,1.8
		c-0.3-0.1-0.6-0.2-1-0.2c-0.4,0-0.7,0.2-1,0.5s-0.4,0.8-0.4,1.5v3.2h-1.7V13.6z"/>
	<path class="st0" d="M78.9,19.4c-0.2,0.3-0.6,0.5-0.9,0.7c-0.4,0.2-0.8,0.3-1.3,0.3c-0.5,0-0.9-0.1-1.3-0.3s-0.7-0.4-1-0.7
		c-0.3-0.3-0.5-0.7-0.6-1.1s-0.2-0.9-0.2-1.4c0-0.5,0.1-1,0.2-1.4c0.2-0.4,0.4-0.8,0.7-1.1c0.3-0.3,0.6-0.6,1-0.7
		c0.4-0.2,0.8-0.3,1.3-0.3c0.5,0,0.9,0.1,1.2,0.3c0.4,0.2,0.7,0.4,0.9,0.7v-0.8h1.7v6.6h-1.7V19.4z M77.2,19c0.3,0,0.5-0.1,0.8-0.2
		c0.2-0.1,0.4-0.2,0.6-0.4c0.2-0.2,0.3-0.4,0.4-0.6C79,17.5,79,17.2,79,17c0-0.6-0.2-1.1-0.5-1.5c-0.3-0.4-0.8-0.6-1.4-0.6
		c-0.3,0-0.5,0.1-0.7,0.2c-0.2,0.1-0.4,0.2-0.6,0.4s-0.3,0.4-0.4,0.6s-0.1,0.5-0.1,0.8s0,0.5,0.1,0.8s0.2,0.5,0.4,0.7
		c0.2,0.2,0.4,0.3,0.6,0.4C76.6,18.9,76.9,19,77.2,19z"/>
	<path class="st0" d="M82.6,9h1.7v11.2h-1.7V9z"/>
	<path class="st0" d="M89.5,20.4c-0.5,0-1-0.1-1.4-0.3c-0.4-0.2-0.8-0.4-1.1-0.7c-0.3-0.3-0.6-0.7-0.7-1.1c-0.2-0.4-0.3-0.9-0.3-1.4
		c0-0.5,0.1-0.9,0.3-1.4s0.4-0.8,0.8-1.1s0.7-0.6,1.1-0.8c0.4-0.2,0.9-0.3,1.4-0.3c0.5,0,1,0.1,1.4,0.3c0.4,0.2,0.8,0.4,1.1,0.7
		c0.3,0.3,0.6,0.7,0.8,1.1c0.2,0.4,0.3,0.9,0.3,1.4c0,0.5-0.1,0.9-0.3,1.3c-0.2,0.4-0.4,0.8-0.7,1.1c-0.3,0.3-0.7,0.6-1.2,0.8
		C90.5,20.3,90,20.4,89.5,20.4z M89.5,18.9c0.3,0,0.5-0.1,0.8-0.2c0.2-0.1,0.4-0.2,0.6-0.4c0.2-0.2,0.3-0.4,0.4-0.6
		c0.1-0.2,0.1-0.5,0.1-0.7c0-0.3,0-0.5-0.1-0.8c-0.1-0.2-0.2-0.4-0.4-0.6s-0.4-0.3-0.6-0.4C90,15,89.8,15,89.5,15
		c-0.3,0-0.5,0.1-0.8,0.2s-0.4,0.2-0.6,0.4c-0.2,0.2-0.3,0.4-0.4,0.6c-0.1,0.2-0.1,0.5-0.1,0.8c0,0.3,0,0.5,0.2,0.8
		c0.1,0.2,0.2,0.4,0.4,0.6s0.4,0.3,0.6,0.4C89,18.8,89.3,18.9,89.5,18.9z"/>
</g>
</svg>
