<?xml version="1.0" encoding="utf-8"?>
<!-- Generator: Adobe Illustrator 16.0.0, SVG Export Plug-In . SVG Version: 6.00 Build 0)  -->
<!DOCTYPE svg PUBLIC "-//W3C//DTD SVG 1.1//EN" "http://www.w3.org/Graphics/SVG/1.1/DTD/svg11.dtd">
<svg version="1.1" id="Layer_1" xmlns="http://www.w3.org/2000/svg" xmlns:xlink="http://www.w3.org/1999/xlink" x="0px" y="0px"
	 width="23px" height="23px" viewBox="0 0 23 23" style="enable-background:new 0 0 23 23;" xml:space="preserve">
<style type="text/css">
<![CDATA[
	.st0{fill:#D2DBE3;}
]]>
</style>
<g>
	<path class="st0" d="M11.6,0.6c-6.1,0-11,4.9-11,11s4.9,11,11,11s11-4.9,11-11S17.6,0.6,11.6,0.6z M16.3,9.2c0,0.1,0,0.2,0,0.3
		c0,3.2-2.4,6.9-6.9,6.9c-1.4,0-2.6-0.4-3.7-1.1c0.2,0,0.4,0,0.6,0c1.1,0,2.2-0.4,3-1c-1.1,0-2-0.7-2.3-1.7c0.1,0,0.3,0,0.5,0
		s0.4,0,0.6-0.1c-1.1-0.2-2-1.2-2-2.4l0,0c0,0.2,0.8,0.3,1.2,0.3c-0.7-0.4-1-1.2-1-2c0-0.4,0.1-0.9,0.3-1.2c1.2,1.5,3,2.4,5,2.5
		c0-0.2-0.1-0.4-0.1-0.6c0-1.3,1.1-2.4,2.4-2.4c0.7,0,1.3,0.3,1.8,0.8c0.5-0.1,1.1-0.3,1.5-0.6c-0.2,0.6-0.6,1-1.1,1.3
		c0.5-0.1,1-0.2,1.4-0.4C17.1,8.4,16.7,8.8,16.3,9.2z"/>
</g>
</svg>
