<?xml version="1.0" encoding="utf-8"?>
<!-- Generator: Adobe Illustrator 16.0.0, SVG Export Plug-In . SVG Version: 6.00 Build 0)  -->
<!DOCTYPE svg PUBLIC "-//W3C//DTD SVG 1.1//EN" "http://www.w3.org/Graphics/SVG/1.1/DTD/svg11.dtd">
<svg version="1.1" id="Layer_1" xmlns="http://www.w3.org/2000/svg" xmlns:xlink="http://www.w3.org/1999/xlink" x="0px" y="0px"
	 width="23px" height="23px" viewBox="0 0 23 23" style="enable-background:new 0 0 23 23;" xml:space="preserve">
<style type="text/css">
<![CDATA[
	.st0{fill:#D2DBE3;}
]]>
</style>
<g>
	<path class="st0" d="M11.5,0.5c-6.1,0-11,4.9-11,11c0,6.1,4.9,11,11,11c6.1,0,11-4.9,11-11C22.5,5.4,17.6,0.5,11.5,0.5z M14.5,11.8
		h-1.9v5.9h-2.2v-5.9H8.2V9.7h2.1V8.2c0-1.9,1.1-3,2.8-3c0.8,0,1.4,0.1,1.6,0.1v2h-1.1c-0.9,0-1.1,0.4-1.1,1.1v1.2h2.2L14.5,11.8z"
		/>
</g>
</svg>
